{
  "accessors": [
    {
      "bufferView": 2,
      "componentType": 5126,
      "count": 100,
      "max": [
        0.5,
        0.4291200041770935,
        1.6126799583435059
      ],
      "min": [
        -0.5,
        -0.1951099932193756,
        0.0019000000320374966
      ],
      "type": "VEC3"
    },
    {
      "bufferView": 2,
      "byteOffset": 1200,
      "componentType": 5126,
      "count": 100,
      "max": [
        1.0,
        0.984807550907135,
        0.984807550907135
      ],
      "min": [
        -1.0,
        -0.9925448298454285,
        -1.0
      ],
      "type": "VEC3"
    },
    {
      "bufferView": 1,
      "componentType": 5126,
      "count": 100,
      "max": [
        1.0,
        1.0
      ],
      "min": [
        0.0,
        0.0
      ],
      "type": "VEC2"
    },
    {
      "bufferView": 0,
      "componentType": 5125,
      "count": 174,
      "type": "SCALAR"
    },
    {
      "bufferView": 2,
      "byteOffset": 2400,
      "componentType": 5126,
      "count": 12,
      "max": [
        0.44999998807907104,
        0.12620000541210175,
        1.5243300199508667
      ],
      "min": [
        -0.44999998807907104,
        -0.17246000468730927,
        0.09025000035762787
      ],
      "type": "VEC3"
    },
    {
      "bufferView": 2,
      "byteOffset": 2544,
      "componentType": 5126,
      "count": 12,
      "max": [
        -0.0,
        0.984807550907135,
        0.17364956438541412
      ],
      "min": [
        -0.0,
        -0.984807550907135,
        -0.17364956438541412
      ],
      "type": "VEC3"
    },
    {
      "bufferView": 1,
      "byteOffset": 800,
      "componentType": 5126,
      "count": 12,
      "max": [
        0.9355199933052063,
        0.9407299757003784
      ],
      "min": [
        0.6451900005340576,
        0.0
      ],
      "type": "VEC2"
    },
    {
      "bufferView": 0,
      "byteOffset": 696,
      "componentType": 5125,
      "count": 30,
      "type": "SCALAR"
    }
  ],
  "asset": {
    "extras": {
      "author": "Jens (https://sketchfab.com/excitedneon)",
      "license": "CC-BY-SA-4.0 (http://creativecommons.org/licenses/by-sa/4.0/)",
      "source": "https://sketchfab.com/3d-models/30days3d-day-12-picture-frame-679da224e0c1404ca4ae907700c58784",
      "title": "#30Days3D - Day 12 - Picture Frame"
    },
    "generator": "Sketchfab-12.68.0",
    "version": "2.0"
  },
  "bufferViews": [
    {
      "buffer": 0,
      "byteLength": 816,
      "name": "floatBufferViews",
      "target": 34963
    },
    {
      "buffer": 0,
      "byteLength": 896,
      "byteOffset": 816,
      "byteStride": 8,
      "name": "floatBufferViews",
      "target": 34962
    },
    {
      "buffer": 0,
      "byteLength": 2688,
      "byteOffset": 1712,
      "byteStride": 12,
      "name": "floatBufferViews",
      "target": 34962
    }
  ],
  "buffers": [
    {
      "byteLength": 4400,
      "uri": "scene.bin"
    }
  ],
  "materials": [
    {
      "doubleSided": true,
      "name": "Frame",
      "pbrMetallicRoughness": {
        "baseColorFactor": [
          0.3080824017524719,
          0.06918323040008545,
          0.008558941073715687,
          1.0
        ],
        "metallicFactor": 0.0,
        "roughnessFactor": 0.6
      }
    },
    {
      "name": "Inner_Stuff",
      "pbrMetallicRoughness": {
        "baseColorFactor": [
          0.8000000715255737,
          0.7127275466918945,
          0.64754319190979,
          1.0
        ],
        "metallicFactor": 0.0,
        "roughnessFactor": 0.6
      }
    }
  ],
  "meshes": [
    {
      "name": "Model_0",
      "primitives": [
        {
          "attributes": {
            "NORMAL": 1,
            "POSITION": 0,
            "TEXCOORD_0": 2
          },
          "indices": 3,
          "material": 0,
          "mode": 4
        }
      ]
    },
    {
      "name": "Model_1",
      "primitives": [
        {
          "attributes": {
            "NORMAL": 5,
            "POSITION": 4,
            "TEXCOORD_0": 6
          },
          "indices": 7,
          "material": 1,
          "mode": 4
        }
      ]
    }
  ],
  "nodes": [
    {
      "children": [
        1
      ],
      "matrix": [
        1.0,
        0.0,
        0.0,
        0.0,
        0.0,
        2.220446049250313e-16,
        -1.0,
        0.0,
        0.0,
        1.0,
        2.220446049250313e-16,
        0.0,
        0.0,
        0.0,
        0.0,
        1.0
      ],
      "name": "Sketchfab_model"
    },
    {
      "children": [
        2
      ],
      "name": "Root"
    },
    {
      "children": [
        3,
        4
      ],
      "name": "Model"
    },
    {
      "mesh": 0,
      "name": "Model_0"
    },
    {
      "mesh": 1,
      "name": "Model_1"
    }
  ],
  "scene": 0,
  "scenes": [
    {
      "name": "Sketchfab_Scene",
      "nodes": [
        0
      ]
    }
  ]
}
