{
	"asset":{
		"generator":"Khronos glTF Blender I/O v5.1.18",
		"version":"2.0"
	},
	"extensionsUsed":[
		"KHR_materials_specular",
		"KHR_texture_transform"
	],
	"extensionsRequired":[
		"KHR_texture_transform"
	],
	"scene":0,
	"scenes":[
		{
			"name":"Scene",
			"nodes":[
				8
			]
		}
	],
	"nodes":[
		{
			"mesh":0,
			"name":"Boole",
			"translation":[
				-2.414154052734375,
				-10.36553955078125,
				0.6891797184944153
			]
		},
		{
			"mesh":1,
			"name":"Boole_1",
			"translation":[
				-0.3872905969619751,
				-10.366790771484375,
				1.4904139041900635
			]
		},
		{
			"mesh":2,
			"name":"Boole_2",
			"translation":[
				-0.37388885021209717,
				4.9044647216796875,
				1.501755952835083
			]
		},
		{
			"mesh":3,
			"name":"Boole_3",
			"translation":[
				-0.36291182041168213,
				4.9044647216796875,
				1.5110454559326172
			]
		},
		{
			"mesh":4,
			"name":"Boole_4",
			"translation":[
				-0.29282480478286743,
				4.9044647216796875,
				1.5703577995300293
			]
		},
		{
			"mesh":5,
			"name":"Boole_5",
			"translation":[
				-7.550469875335693,
				-8.852863311767578,
				-4.571549415588379
			]
		},
		{
			"mesh":6,
			"name":"Boole_6",
			"translation":[
				-8.789190292358398,
				-8.06821060180664,
				-5.619836807250977
			]
		},
		{
			"mesh":7,
			"name":"Sweep_12",
			"translation":[
				3.866675853729248,
				6.018943786621094,
				-6.732621192932129
			]
		},
		{
			"children":[
				0,
				1,
				2,
				3,
				4,
				5,
				6,
				7
			],
			"name":"Celender",
			"translation":[
				-0.26420629024505615,
				49.92701721191406,
				0.09463591128587723
			]
		}
	],
	"materials":[
		{
			"doubleSided":true,
			"extensions":{
				"KHR_materials_specular":{
					"specularColorFactor":[
						0.4000000059604645,
						0.4000000059604645,
						0.4000000059604645
					]
				}
			},
			"name":"Mat.2",
			"pbrMetallicRoughness":{
				"baseColorFactor":[
					0.800000011920929,
					0.800000011920929,
					0.800000011920929,
					1
				],
				"metallicFactor":0,
				"roughnessFactor":0.4343145787715912
			}
		},
		{
			"doubleSided":true,
			"extensions":{
				"KHR_materials_specular":{
					"specularColorFactor":[
						0.4000000059604645,
						0.4000000059604645,
						0.4000000059604645
					]
				}
			},
			"name":"Mat",
			"pbrMetallicRoughness":{
				"baseColorTexture":{
					"extensions":{
						"KHR_texture_transform":{
							"offset":[
								0,
								-1
							]
						}
					},
					"index":0
				},
				"metallicFactor":0,
				"roughnessFactor":0.4343145787715912
			}
		},
		{
			"doubleSided":true,
			"extensions":{
				"KHR_materials_specular":{
					"specularColorFactor":[
						0.4000000059604645,
						0.4000000059604645,
						0.4000000059604645
					]
				}
			},
			"name":"Mat.1",
			"pbrMetallicRoughness":{
				"baseColorFactor":[
					0.800000011920929,
					0.800000011920929,
					0.800000011920929,
					1
				],
				"metallicFactor":0,
				"roughnessFactor":0.4343145787715912
			}
		},
		{
			"doubleSided":true,
			"extensions":{
				"KHR_materials_specular":{
					"specularColorFactor":[
						0.4000000059604645,
						0.4000000059604645,
						0.4000000059604645
					]
				}
			},
			"name":"Mat.3",
			"pbrMetallicRoughness":{
				"baseColorFactor":[
					0.800000011920929,
					0.800000011920929,
					0.800000011920929,
					1
				],
				"metallicFactor":0,
				"roughnessFactor":0.4343145787715912
			}
		}
	],
	"meshes":[
		{
			"name":"Mesh.007",
			"primitives":[
				{
					"attributes":{
						"POSITION":0,
						"NORMAL":1,
						"TEXCOORD_0":2
					},
					"indices":3,
					"material":0
				}
			]
		},
		{
			"name":"Mesh.003",
			"primitives":[
				{
					"attributes":{
						"POSITION":4,
						"NORMAL":5,
						"TEXCOORD_0":6
					},
					"indices":7,
					"material":1
				}
			]
		},
		{
			"name":"Mesh.002",
			"primitives":[
				{
					"attributes":{
						"POSITION":8,
						"NORMAL":9,
						"TEXCOORD_0":10
					},
					"indices":7,
					"material":1
				}
			]
		},
		{
			"name":"Mesh.001",
			"primitives":[
				{
					"attributes":{
						"POSITION":11,
						"NORMAL":12,
						"TEXCOORD_0":13
					},
					"indices":7,
					"material":1
				}
			]
		},
		{
			"name":"Mesh",
			"primitives":[
				{
					"attributes":{
						"POSITION":14,
						"NORMAL":15,
						"TEXCOORD_0":16
					},
					"indices":7,
					"material":1
				}
			]
		},
		{
			"name":"Mesh.005",
			"primitives":[
				{
					"attributes":{
						"POSITION":17,
						"NORMAL":18,
						"TEXCOORD_0":19
					},
					"indices":7,
					"material":2
				}
			]
		},
		{
			"name":"Mesh.004",
			"primitives":[
				{
					"attributes":{
						"POSITION":20,
						"NORMAL":21,
						"TEXCOORD_0":22
					},
					"indices":7,
					"material":2
				}
			]
		},
		{
			"name":"Mesh.006",
			"primitives":[
				{
					"attributes":{
						"POSITION":23,
						"NORMAL":24,
						"TEXCOORD_0":25
					},
					"indices":26,
					"material":3
				}
			]
		}
	],
	"textures":[
		{
			"sampler":0,
			"source":0
		}
	],
	"images":[
		{
			"mimeType":"image/jpeg",
			"name":"minimal_calendar_for_2026",
			"uri":"minimal_calendar_for_2026.jpg"
		}
	],
	"accessors":[
		{
			"bufferView":0,
			"componentType":5126,
			"count":7288,
			"max":[
				23.769330978393555,
				16.793310165405273,
				11.303399085998535
			],
			"min":[
				-11.198480606079102,
				-15.123337745666504,
				-26.16118812561035
			],
			"type":"VEC3"
		},
		{
			"bufferView":1,
			"componentType":5126,
			"count":7288,
			"type":"VEC3"
		},
		{
			"bufferView":2,
			"componentType":5126,
			"count":7288,
			"type":"VEC2"
		},
		{
			"bufferView":3,
			"componentType":5123,
			"count":25116,
			"type":"SCALAR"
		},
		{
			"bufferView":4,
			"componentType":5126,
			"count":2397,
			"max":[
				20.801355361938477,
				16.0269832611084,
				9.410674095153809
			],
			"min":[
				-5.939223766326904,
				-13.513076782226562,
				-20.580066680908203
			],
			"type":"VEC3"
		},
		{
			"bufferView":5,
			"componentType":5126,
			"count":2397,
			"type":"VEC3"
		},
		{
			"bufferView":6,
			"componentType":5126,
			"count":2397,
			"type":"VEC2"
		},
		{
			"bufferView":7,
			"componentType":5123,
			"count":11742,
			"type":"SCALAR"
		},
		{
			"bufferView":8,
			"componentType":5126,
			"count":2397,
			"max":[
				20.801353454589844,
				0.7557305693626404,
				9.410672187805176
			],
			"min":[
				-5.939225196838379,
				-28.78432846069336,
				-20.580068588256836
			],
			"type":"VEC3"
		},
		{
			"bufferView":9,
			"componentType":5126,
			"count":2397,
			"type":"VEC3"
		},
		{
			"bufferView":10,
			"componentType":5126,
			"count":2397,
			"type":"VEC2"
		},
		{
			"bufferView":11,
			"componentType":5126,
			"count":2397,
			"max":[
				20.801353454589844,
				0.7557305693626404,
				9.410672187805176
			],
			"min":[
				-5.939225196838379,
				-28.78432846069336,
				-20.580068588256836
			],
			"type":"VEC3"
		},
		{
			"bufferView":12,
			"componentType":5126,
			"count":2397,
			"type":"VEC3"
		},
		{
			"bufferView":13,
			"componentType":5126,
			"count":2397,
			"type":"VEC2"
		},
		{
			"bufferView":14,
			"componentType":5126,
			"count":2397,
			"max":[
				20.801353454589844,
				0.7557305693626404,
				9.410672187805176
			],
			"min":[
				-5.939225196838379,
				-28.78432846069336,
				-20.580068588256836
			],
			"type":"VEC3"
		},
		{
			"bufferView":15,
			"componentType":5126,
			"count":2397,
			"type":"VEC3"
		},
		{
			"bufferView":16,
			"componentType":5126,
			"count":2397,
			"type":"VEC2"
		},
		{
			"bufferView":17,
			"componentType":5126,
			"count":2397,
			"max":[
				21.668424606323242,
				14.7587890625,
				10.14444637298584
			],
			"min":[
				-6.278270721435547,
				-14.400714874267578,
				-20.86699104309082
			],
			"type":"VEC3"
		},
		{
			"bufferView":18,
			"componentType":5126,
			"count":2397,
			"type":"VEC3"
		},
		{
			"bufferView":19,
			"componentType":5126,
			"count":2397,
			"type":"VEC2"
		},
		{
			"bufferView":20,
			"componentType":5126,
			"count":2397,
			"max":[
				22.788944244384766,
				14.037582397460938,
				11.092706680297852
			],
			"min":[
				-7.390071868896484,
				-14.171624183654785,
				-21.80787467956543
			],
			"type":"VEC3"
		},
		{
			"bufferView":21,
			"componentType":5126,
			"count":2397,
			"type":"VEC3"
		},
		{
			"bufferView":22,
			"componentType":5126,
			"count":2397,
			"type":"VEC2"
		},
		{
			"bufferView":23,
			"componentType":5126,
			"count":40885,
			"max":[
				11.646568298339844,
				1.6396164894104004,
				13.248576164245605
			],
			"min":[
				-11.562219619750977,
				-1.6823844909667969,
				-13.348247528076172
			],
			"type":"VEC3"
		},
		{
			"bufferView":24,
			"componentType":5126,
			"count":40885,
			"type":"VEC3"
		},
		{
			"bufferView":25,
			"componentType":5126,
			"count":40885,
			"type":"VEC2"
		},
		{
			"bufferView":26,
			"componentType":5123,
			"count":235872,
			"type":"SCALAR"
		}
	],
	"bufferViews":[
		{
			"buffer":0,
			"byteLength":87456,
			"byteOffset":0,
			"target":34962
		},
		{
			"buffer":0,
			"byteLength":87456,
			"byteOffset":87456,
			"target":34962
		},
		{
			"buffer":0,
			"byteLength":58304,
			"byteOffset":174912,
			"target":34962
		},
		{
			"buffer":0,
			"byteLength":50232,
			"byteOffset":233216,
			"target":34963
		},
		{
			"buffer":0,
			"byteLength":28764,
			"byteOffset":283448,
			"target":34962
		},
		{
			"buffer":0,
			"byteLength":28764,
			"byteOffset":312212,
			"target":34962
		},
		{
			"buffer":0,
			"byteLength":19176,
			"byteOffset":340976,
			"target":34962
		},
		{
			"buffer":0,
			"byteLength":23484,
			"byteOffset":360152,
			"target":34963
		},
		{
			"buffer":0,
			"byteLength":28764,
			"byteOffset":383636,
			"target":34962
		},
		{
			"buffer":0,
			"byteLength":28764,
			"byteOffset":412400,
			"target":34962
		},
		{
			"buffer":0,
			"byteLength":19176,
			"byteOffset":441164,
			"target":34962
		},
		{
			"buffer":0,
			"byteLength":28764,
			"byteOffset":460340,
			"target":34962
		},
		{
			"buffer":0,
			"byteLength":28764,
			"byteOffset":489104,
			"target":34962
		},
		{
			"buffer":0,
			"byteLength":19176,
			"byteOffset":517868,
			"target":34962
		},
		{
			"buffer":0,
			"byteLength":28764,
			"byteOffset":537044,
			"target":34962
		},
		{
			"buffer":0,
			"byteLength":28764,
			"byteOffset":565808,
			"target":34962
		},
		{
			"buffer":0,
			"byteLength":19176,
			"byteOffset":594572,
			"target":34962
		},
		{
			"buffer":0,
			"byteLength":28764,
			"byteOffset":613748,
			"target":34962
		},
		{
			"buffer":0,
			"byteLength":28764,
			"byteOffset":642512,
			"target":34962
		},
		{
			"buffer":0,
			"byteLength":19176,
			"byteOffset":671276,
			"target":34962
		},
		{
			"buffer":0,
			"byteLength":28764,
			"byteOffset":690452,
			"target":34962
		},
		{
			"buffer":0,
			"byteLength":28764,
			"byteOffset":719216,
			"target":34962
		},
		{
			"buffer":0,
			"byteLength":19176,
			"byteOffset":747980,
			"target":34962
		},
		{
			"buffer":0,
			"byteLength":490620,
			"byteOffset":767156,
			"target":34962
		},
		{
			"buffer":0,
			"byteLength":490620,
			"byteOffset":1257776,
			"target":34962
		},
		{
			"buffer":0,
			"byteLength":327080,
			"byteOffset":1748396,
			"target":34962
		},
		{
			"buffer":0,
			"byteLength":471744,
			"byteOffset":2075476,
			"target":34963
		}
	],
	"samplers":[
		{
			"magFilter":9729,
			"minFilter":9987
		}
	],
	"buffers":[
		{
			"byteLength":2547220,
			"uri":"calendar.bin"
		}
	]
}
