{
  "accessors": [
    {
      "bufferView": 2,
      "componentType": 5126,
      "count": 55,
      "max": [
        -0.21472300589084625,
        -0.07231699675321579,
        -0.3424060046672821
      ],
      "min": [
        -1.0674870014190674,
        -0.9382359981536865,
        -0.4331490099430084
      ],
      "type": "VEC3"
    },
    {
      "bufferView": 2,
      "byteOffset": 660,
      "componentType": 5126,
      "count": 55,
      "max": [
        0.9848076701164246,
        1.0,
        1.0
      ],
      "min": [
        -0.9848077893257141,
        -1.0,
        0.0
      ],
      "type": "VEC3"
    },
    {
      "bufferView": 1,
      "componentType": 5126,
      "count": 55,
      "max": [
        0.9846349954605103,
        0.9999009966850281
      ],
      "min": [
        9.899999713525176e-05,
        9.899999713525176e-05
      ],
      "type": "VEC2"
    },
    {
      "bufferView": 1,
      "byteOffset": 440,
      "componentType": 5126,
      "count": 55,
      "max": [
        0.9846349954605103,
        0.9999009966850281
      ],
      "min": [
        9.899999713525176e-05,
        9.899999713525176e-05
      ],
      "type": "VEC2"
    },
    {
      "bufferView": 1,
      "byteOffset": 880,
      "componentType": 5126,
      "count": 55,
      "max": [
        0.9846349954605103,
        0.9999009966850281
      ],
      "min": [
        9.899999713525176e-05,
        9.899999713525176e-05
      ],
      "type": "VEC2"
    },
    {
      "bufferView": 1,
      "byteOffset": 1320,
      "componentType": 5126,
      "count": 55,
      "max": [
        0.9846349954605103,
        0.9999009966850281
      ],
      "min": [
        9.899999713525176e-05,
        9.899999713525176e-05
      ],
      "type": "VEC2"
    },
    {
      "bufferView": 0,
      "componentType": 5125,
      "count": 270,
      "type": "SCALAR"
    },
    {
      "bufferView": 2,
      "byteOffset": 1320,
      "componentType": 5126,
      "count": 471,
      "max": [
        3.11995005607605,
        3.8594419956207275,
        -0.45043501257896423
      ],
      "min": [
        -3.1581459045410156,
        -4.822418212890625,
        -1.2829649448394775
      ],
      "type": "VEC3"
    },
    {
      "bufferView": 2,
      "byteOffset": 6972,
      "componentType": 5126,
      "count": 471,
      "max": [
        1.0,
        1.0,
        1.0
      ],
      "min": [
        -1.0,
        -1.0,
        -1.0
      ],
      "type": "VEC3"
    },
    {
      "bufferView": 1,
      "byteOffset": 1760,
      "componentType": 5126,
      "count": 471,
      "max": [
        0.9397670030593872,
        0.9563339948654175
      ],
      "min": [
        0.00012799999967683107,
        0.00012799999967683107
      ],
      "type": "VEC2"
    },
    {
      "bufferView": 1,
      "byteOffset": 5528,
      "componentType": 5126,
      "count": 471,
      "max": [
        0.9397670030593872,
        0.9563339948654175
      ],
      "min": [
        0.00012799999967683107,
        0.00012799999967683107
      ],
      "type": "VEC2"
    },
    {
      "bufferView": 1,
      "byteOffset": 9296,
      "componentType": 5126,
      "count": 471,
      "max": [
        0.9397670030593872,
        0.9563339948654175
      ],
      "min": [
        0.00012799999967683107,
        0.00012799999967683107
      ],
      "type": "VEC2"
    },
    {
      "bufferView": 1,
      "byteOffset": 13064,
      "componentType": 5126,
      "count": 471,
      "max": [
        0.9397670030593872,
        0.9563339948654175
      ],
      "min": [
        0.00012799999967683107,
        0.00012799999967683107
      ],
      "type": "VEC2"
    },
    {
      "bufferView": 0,
      "byteOffset": 1080,
      "componentType": 5125,
      "count": 2514,
      "type": "SCALAR"
    }
  ],
  "asset": {
    "extras": {
      "author": "jalalbelych301 (https://sketchfab.com/jalalbelych301)",
      "license": "CC-BY-4.0 (http://creativecommons.org/licenses/by/4.0/)",
      "source": "https://sketchfab.com/3d-models/scenewgltf-80e8d90a78944230b6d86e349a9c760f",
      "title": "SceneW.gltf"
    },
    "generator": "Sketchfab-16.99.0",
    "version": "2.0"
  },
  "bufferViews": [
    {
      "buffer": 0,
      "byteLength": 11136,
      "name": "floatBufferViews",
      "target": 34963
    },
    {
      "buffer": 0,
      "byteLength": 16832,
      "byteOffset": 11136,
      "byteStride": 8,
      "name": "floatBufferViews",
      "target": 34962
    },
    {
      "buffer": 0,
      "byteLength": 12624,
      "byteOffset": 27968,
      "byteStride": 12,
      "name": "floatBufferViews",
      "target": 34962
    }
  ],
  "buffers": [
    {
      "byteLength": 40592,
      "uri": "scene.bin"
    }
  ],
  "images": [
    {
      "uri": "textures/material_0_baseColor.png"
    },
    {
      "uri": "textures/material_0_metallicRoughness.png"
    },
    {
      "uri": "textures/material_1_baseColor.png"
    },
    {
      "uri": "textures/material_1_metallicRoughness.png"
    }
  ],
  "materials": [
    {
      "doubleSided": true,
      "name": "material_0",
      "occlusionTexture": {
        "index": 1
      },
      "pbrMetallicRoughness": {
        "baseColorTexture": {
          "index": 0
        },
        "metallicRoughnessTexture": {
          "index": 1
        }
      }
    },
    {
      "doubleSided": true,
      "name": "material_1",
      "occlusionTexture": {
        "index": 3
      },
      "pbrMetallicRoughness": {
        "baseColorTexture": {
          "index": 2
        },
        "metallicRoughnessTexture": {
          "index": 3
        }
      }
    }
  ],
  "meshes": [
    {
      "name": "Object_0",
      "primitives": [
        {
          "attributes": {
            "NORMAL": 1,
            "POSITION": 0,
            "TEXCOORD_0": 2,
            "TEXCOORD_1": 3,
            "TEXCOORD_2": 4,
            "TEXCOORD_3": 5
          },
          "indices": 6,
          "material": 0,
          "mode": 4
        }
      ]
    },
    {
      "name": "Object_1",
      "primitives": [
        {
          "attributes": {
            "NORMAL": 8,
            "POSITION": 7,
            "TEXCOORD_0": 9,
            "TEXCOORD_1": 10,
            "TEXCOORD_2": 11,
            "TEXCOORD_3": 12
          },
          "indices": 13,
          "material": 1,
          "mode": 4
        }
      ]
    }
  ],
  "nodes": [
    {
      "children": [
        1
      ],
      "matrix": [
        1.0,
        -1.608122622957729e-16,
        -1.6081226229577294e-16,
        0.0,
        -1.6081226229577292e-16,
        6.123234262925839e-17,
        -1.0,
        0.0,
        1.6081226229577292e-16,
        1.0,
        6.123234262925839e-17,
        0.0,
        0.0,
        0.0,
        0.0,
        1.0
      ],
      "name": "Sketchfab_model"
    },
    {
      "children": [
        2
      ],
      "name": "root"
    },
    {
      "children": [
        3
      ],
      "matrix": [
        1.0,
        0.0,
        0.0,
        0.0,
        0.0,
        2.220446049250313e-16,
        1.0,
        0.0,
        0.0,
        -1.0,
        2.220446049250313e-16,
        0.0,
        0.0,
        0.0,
        0.0,
        1.0
      ],
      "name": "GLTF_SceneRootNode"
    },
    {
      "children": [
        4
      ],
      "matrix": [
        1.0,
        -0.0,
        0.0,
        0.0,
        0.0,
        0.0,
        -1.0,
        0.0,
        0.0,
        1.0,
        0.0,
        0.0,
        0.0,
        0.0,
        0.0,
        1.0
      ],
      "name": "Sketchfab_model_0"
    },
    {
      "children": [
        5,
        7
      ],
      "name": "22954da712834810873aba70b1b16439.obj.cleaner.materialmerger.gles_1"
    },
    {
      "children": [
        6
      ],
      "name": "Object_2_2"
    },
    {
      "mesh": 0,
      "name": "Object_6"
    },
    {
      "children": [
        8
      ],
      "name": "Object_3_3"
    },
    {
      "mesh": 1,
      "name": "Object_8"
    }
  ],
  "samplers": [
    {
      "magFilter": 9729,
      "minFilter": 9987,
      "wrapS": 10497,
      "wrapT": 10497
    }
  ],
  "scene": 0,
  "scenes": [
    {
      "name": "Sketchfab_Scene",
      "nodes": [
        0
      ]
    }
  ],
  "textures": [
    {
      "sampler": 0,
      "source": 0
    },
    {
      "sampler": 0,
      "source": 1
    },
    {
      "sampler": 0,
      "source": 2
    },
    {
      "sampler": 0,
      "source": 3
    }
  ]
}
